<svg width="14" height="14" viewBox="0 0 14 14" fill="none" xmlns="http://www.w3.org/2000/svg">
<path d="M11.375 1.75H2.625C2.39294 1.75 2.17038 1.84219 2.00628 2.00628C1.84219 2.17038 1.75 2.39294 1.75 2.625V11.375C1.75 11.6071 1.84219 11.8296 2.00628 11.9937C2.17038 12.1578 2.39294 12.25 2.625 12.25H11.375C11.6071 12.25 11.8296 12.1578 11.9937 11.9937C12.1578 11.8296 12.25 11.6071 12.25 11.375V2.625C12.25 2.39294 12.1578 2.17038 11.9937 2.00628C11.8296 1.84219 11.6071 1.75 11.375 1.75ZM10.0625 7.4375H7.4375V10.0625C7.4375 10.1785 7.39141 10.2898 7.30936 10.3719C7.22731 10.4539 7.11603 10.5 7 10.5C6.88397 10.5 6.77269 10.4539 6.69064 10.3719C6.60859 10.2898 6.5625 10.1785 6.5625 10.0625V7.4375H3.9375C3.82147 7.4375 3.71019 7.39141 3.62814 7.30936C3.54609 7.22731 3.5 7.11603 3.5 7C3.5 6.88397 3.54609 6.77269 3.62814 6.69064C3.71019 6.60859 3.82147 6.5625 3.9375 6.5625H6.5625V3.9375C6.5625 3.82147 6.60859 3.71019 6.69064 3.62814C6.77269 3.54609 6.88397 3.5 7 3.5C7.11603 3.5 7.22731 3.54609 7.30936 3.62814C7.39141 3.71019 7.4375 3.82147 7.4375 3.9375V6.5625H10.0625C10.1785 6.5625 10.2898 6.60859 10.3719 6.69064C10.4539 6.77269 10.5 6.88397 10.5 7C10.5 7.11603 10.4539 7.22731 10.3719 7.30936C10.2898 7.39141 10.1785 7.4375 10.0625 7.4375Z" fill="#2A2A2A"/>
</svg>
